<?xml version="1.0" encoding="utf-8"?>
<!-- Generator: Adobe Illustrator 15.0.0, SVG Export Plug-In . SVG Version: 6.00 Build 0)  -->
<!DOCTYPE svg PUBLIC "-//W3C//DTD SVG 1.1//EN" "http://www.w3.org/Graphics/SVG/1.1/DTD/svg11.dtd">
<svg version="1.1" id="Layer_1" xmlns="http://www.w3.org/2000/svg" xmlns:xlink="http://www.w3.org/1999/xlink" x="0px" y="0px"
	 width="164.144px" height="81.54px" viewBox="0 0 164.144 81.54" enable-background="new 0 0 164.144 81.54" xml:space="preserve">
<g>
	<defs>
		<rect id="SVGID_1_" width="164.144" height="81.54"/>
	</defs>
	<clipPath id="SVGID_2_">
		<use xlink:href="#SVGID_1_"  overflow="visible"/>
	</clipPath>
	<path clip-path="url(#SVGID_2_)" fill="#404040" d="M13.897,42.408c0,0.923,0.139,1.479,0.554,1.639
		c0.07,0.069,0.07,0.208-0.023,0.277c-0.277,0-0.692,0.092-1.132,0.208c-1.222,0.323-2.884,0.6-4.131,0.6
		c-2.747,0-5.265-0.762-7.042-2.562C0.738,41.184,0,39.36,0,37.329c0-1.963,0.646-3.948,2.077-5.472
		c1.547-1.616,3.833-2.701,7.318-2.701c1.315,0,2.54,0.254,2.933,0.347c0.437,0.092,1.154,0.254,1.431,0.207
		c0,0.761,0.138,1.963,0.346,3.347c-0.069,0.185-0.484,0.208-0.623,0.07c-0.647-2.493-2.379-3.279-4.732-3.279
		c-4.48,0-6.442,3.187-6.442,6.65c0,4.432,2.285,7.918,6.926,7.918c1.432,0,2.285-0.3,2.539-0.692
		c0.115-0.161,0.23-0.577,0.23-1.315v-0.924c0-1.939-0.068-2.078-1.5-2.239L9.488,39.13c-0.186-0.093-0.162-0.508,0-0.577
		c0.67,0.045,1.939,0.069,3.301,0.069c0.9,0,1.685-0.024,2.447-0.069c0.162,0.091,0.185,0.438,0.023,0.577l-0.369,0.046
		c-0.97,0.115-0.993,0.761-0.993,1.939V42.408z"/>
	<path clip-path="url(#SVGID_2_)" fill="#404040" d="M18.565,32.988c0-2.424-0.046-2.793-1.501-2.908l-0.576-0.047
		c-0.139-0.092-0.093-0.508,0.045-0.577c1.293,0.047,2.078,0.069,3.002,0.069c0.9,0,1.685-0.022,2.84-0.069
		c0.138,0.069,0.184,0.485,0.045,0.577l-0.553,0.047c-1.363,0.115-1.408,0.484-1.408,2.908v8.034c0,1.455,0.068,2.055,0.484,2.493
		c0.254,0.254,0.692,0.531,2.517,0.531c1.961,0,2.446-0.092,2.816-0.3c0.462-0.277,1.061-1.108,1.523-2.286
		c0.139-0.116,0.578-0.023,0.578,0.138c0,0.254-0.647,2.609-0.969,3.232c-1.178-0.046-3.371-0.069-5.749-0.069h-2.124
		c-0.97,0-1.709,0.023-3.002,0.069c-0.138-0.069-0.184-0.438-0.045-0.577l0.691-0.069c1.34-0.139,1.386-0.462,1.386-2.885V32.988z"
		/>
	<path clip-path="url(#SVGID_2_)" fill="#404040" d="M28.588,37.306c0-4.618,3.463-8.15,8.219-8.15c5.334,0,8.012,3.856,8.012,7.919
		c0,4.663-3.556,8.057-8.012,8.057C31.682,45.132,28.588,41.461,28.588,37.306 M42.51,37.791c0-3.81-1.686-7.919-6.096-7.919
		c-2.4,0-5.517,1.639-5.517,6.695c0,3.416,1.662,7.849,6.211,7.849C39.877,44.416,42.51,42.339,42.51,37.791"/>
	<path clip-path="url(#SVGID_2_)" fill="#404040" d="M48.262,32.526c0-1.708-0.092-2.146-1.131-2.239l-0.739-0.069
		c-0.184-0.138-0.162-0.485,0.024-0.578c1.246-0.115,2.816-0.184,4.963-0.184c1.455,0,2.839,0.115,3.879,0.646
		c0.992,0.486,1.754,1.409,1.754,2.886c0,1.662-0.969,2.517-2.354,3.163c0,0.231,0.184,0.3,0.437,0.347
		c1.248,0.23,3.094,1.385,3.094,3.855c0,2.678-1.984,4.479-6.14,4.479c-0.67,0-1.801-0.069-2.771-0.069
		c-1.016,0-1.801,0.046-2.655,0.069c-0.139-0.069-0.184-0.438-0.046-0.577l0.416-0.069c1.224-0.208,1.269-0.461,1.269-2.885V32.526z
		 M50.156,35.598c0,0.646,0.022,0.692,1.2,0.646c2.355-0.093,3.624-0.785,3.624-2.955c0-2.263-1.685-3.117-3.439-3.117
		c-0.508,0-0.854,0.046-1.063,0.138c-0.23,0.07-0.322,0.185-0.322,0.601V35.598z M50.156,40.953c0,0.831,0.046,2.009,0.484,2.517
		c0.439,0.531,1.131,0.646,1.825,0.646c2.054,0,3.624-0.924,3.624-3.232c0-1.824-0.923-3.948-4.595-3.948
		c-1.246,0-1.338,0.139-1.338,0.6V40.953z"/>
	<path clip-path="url(#SVGID_2_)" fill="#404040" d="M68.097,39.407c-0.161-0.508-0.254-0.577-0.946-0.577h-3.486
		c-0.577,0-0.716,0.069-0.877,0.554l-0.808,2.424c-0.347,1.039-0.508,1.662-0.508,1.916c0,0.277,0.116,0.416,0.669,0.462
		l0.762,0.069c0.161,0.115,0.161,0.484-0.046,0.576c-0.601-0.045-1.316-0.045-2.401-0.068c-0.762,0-1.593,0.046-2.216,0.068
		c-0.139-0.092-0.186-0.461-0.047-0.576l0.762-0.069c0.554-0.046,1.062-0.3,1.385-1.131c0.416-1.062,1.062-2.563,2.033-5.148
		l2.354-6.234c0.323-0.831,0.462-1.269,0.393-1.639c0.553-0.161,0.946-0.578,1.2-0.877c0.139,0,0.3,0.046,0.347,0.208
		c0.299,1.015,0.669,2.077,1.015,3.093l3.162,9.281c0.67,1.985,0.97,2.332,1.963,2.447l0.623,0.069c0.162,0.115,0.116,0.484,0,0.576
		c-0.946-0.045-1.754-0.068-2.793-0.068c-1.108,0-1.985,0.046-2.655,0.068c-0.184-0.092-0.208-0.461-0.046-0.576l0.669-0.069
		c0.485-0.046,0.809-0.185,0.809-0.416c0-0.254-0.116-0.669-0.301-1.224L68.097,39.407z M63.527,37.352
		c-0.186,0.531-0.162,0.555,0.484,0.555h2.84c0.669,0,0.715-0.093,0.508-0.716l-1.247-3.764c-0.185-0.554-0.393-1.177-0.531-1.454
		h-0.046c-0.07,0.115-0.3,0.67-0.554,1.362L63.527,37.352z"/>
	<path clip-path="url(#SVGID_2_)" fill="#404040" d="M75.466,32.988c0-2.424-0.046-2.793-1.501-2.908l-0.577-0.047
		c-0.138-0.092-0.092-0.508,0.047-0.577c1.292,0.047,2.077,0.069,3.001,0.069c0.9,0,1.685-0.022,2.84-0.069
		c0.138,0.069,0.184,0.485,0.045,0.577l-0.553,0.047c-1.363,0.115-1.408,0.484-1.408,2.908v8.034c0,1.455,0.068,2.055,0.484,2.493
		c0.254,0.254,0.692,0.531,2.517,0.531c1.961,0,2.447-0.092,2.816-0.3c0.462-0.277,1.062-1.108,1.523-2.286
		c0.139-0.116,0.577-0.023,0.577,0.138c0,0.254-0.646,2.609-0.97,3.232c-1.177-0.046-3.37-0.069-5.748-0.069h-2.124
		c-0.97,0-1.709,0.023-3.001,0.069c-0.139-0.069-0.185-0.438-0.047-0.577l0.693-0.069c1.339-0.139,1.385-0.462,1.385-2.885V32.988z"
		/>
	<path clip-path="url(#SVGID_2_)" fill="#404040" d="M104.859,42.408c0,0.923,0.139,1.479,0.555,1.639
		c0.068,0.069,0.068,0.208-0.023,0.277c-0.277,0-0.692,0.092-1.132,0.208c-1.223,0.323-2.886,0.6-4.132,0.6
		c-2.746,0-5.264-0.762-7.042-2.562c-1.385-1.385-2.124-3.209-2.124-5.24c0-1.963,0.646-3.948,2.078-5.472
		c1.547-1.616,3.832-2.701,7.318-2.701c1.316,0,2.54,0.254,2.933,0.347c0.438,0.092,1.154,0.254,1.431,0.207
		c0,0.761,0.139,1.963,0.347,3.347c-0.069,0.185-0.485,0.208-0.623,0.07c-0.646-2.493-2.378-3.279-4.733-3.279
		c-4.479,0-6.44,3.187-6.44,6.65c0,4.432,2.285,7.918,6.926,7.918c1.431,0,2.285-0.3,2.539-0.692
		c0.115-0.161,0.231-0.577,0.231-1.315v-0.924c0-1.939-0.069-2.078-1.501-2.239l-1.016-0.115c-0.185-0.093-0.162-0.508,0-0.577
		c0.669,0.045,1.939,0.069,3.301,0.069c0.9,0,1.686-0.024,2.447-0.069c0.162,0.091,0.185,0.438,0.023,0.577l-0.369,0.046
		c-0.97,0.115-0.993,0.761-0.993,1.939V42.408z"/>
	<path clip-path="url(#SVGID_2_)" fill="#404040" d="M109.527,33.011c0-2.193-0.069-2.586-1.016-2.701l-0.739-0.093
		c-0.161-0.115-0.161-0.484,0.023-0.577c1.293-0.115,2.886-0.184,5.148-0.184c1.432,0,2.793,0.115,3.855,0.692
		c1.108,0.577,1.916,1.616,1.916,3.232c0,2.194-1.731,3.394-2.886,3.856c-0.115,0.139,0,0.369,0.115,0.555
		c1.847,2.977,3.07,4.824,4.641,6.14c0.393,0.347,0.97,0.601,1.593,0.646c0.115,0.046,0.138,0.23,0.023,0.323
		c-0.208,0.069-0.577,0.115-1.016,0.115c-1.963,0-3.141-0.577-4.779-2.909c-0.601-0.854-1.547-2.447-2.263-3.485
		c-0.346-0.508-0.716-0.74-1.639-0.74c-1.039,0-1.085,0.024-1.085,0.508v2.909c0,2.424,0.046,2.701,1.385,2.886l0.484,0.069
		c0.139,0.115,0.093,0.508-0.046,0.577c-1.039-0.046-1.823-0.069-2.747-0.069c-0.97,0-1.801,0.023-2.886,0.069
		c-0.139-0.069-0.185-0.416-0.046-0.577l0.577-0.069c1.339-0.161,1.385-0.462,1.385-2.886V33.011z M111.421,36.313
		c0,0.415,0,0.669,0.068,0.762c0.069,0.069,0.416,0.115,1.594,0.115c0.831,0,1.708-0.093,2.378-0.601
		c0.623-0.484,1.154-1.293,1.154-2.862c0-1.824-1.133-3.556-3.694-3.556c-1.432,0-1.5,0.093-1.5,0.74V36.313z"/>
	<path clip-path="url(#SVGID_2_)" fill="#404040" d="M123.845,32.988c0-2.4-0.046-2.747-1.408-2.908l-0.369-0.047
		c-0.139-0.092-0.093-0.508,0.046-0.577c0.992,0.047,1.777,0.069,2.725,0.069h4.34c1.478,0,2.84,0,3.116-0.069
		c0.139,0.392,0.277,2.054,0.37,3.07c-0.093,0.139-0.462,0.186-0.577,0.047c-0.347-1.085-0.556-1.894-1.755-2.193
		c-0.484-0.116-1.224-0.139-2.239-0.139h-1.662c-0.692,0-0.692,0.046-0.692,0.924v4.617c0,0.646,0.068,0.646,0.762,0.646h1.339
		c0.97,0,1.686-0.046,1.962-0.138c0.277-0.093,0.438-0.232,0.555-0.809l0.185-0.946c0.115-0.139,0.508-0.139,0.6,0.023
		c0,0.554-0.092,1.454-0.092,2.332c0,0.831,0.092,1.708,0.092,2.216c-0.092,0.162-0.484,0.162-0.6,0.024l-0.208-0.901
		c-0.093-0.416-0.254-0.762-0.717-0.878c-0.322-0.092-0.876-0.115-1.776-0.115H126.5c-0.693,0-0.762,0.023-0.762,0.623v3.256
		c0,1.224,0.068,2.009,0.438,2.4c0.276,0.277,0.762,0.531,2.793,0.531c1.778,0,2.447-0.092,2.955-0.346
		c0.416-0.231,1.039-1.039,1.64-2.24c0.161-0.116,0.484-0.046,0.577,0.162c-0.162,0.808-0.739,2.586-1.039,3.209
		c-2.078-0.046-4.133-0.069-6.188-0.069h-2.077c-0.993,0-1.778,0.023-3.141,0.069c-0.138-0.069-0.185-0.438-0.046-0.577l0.762-0.069
		c1.316-0.115,1.432-0.462,1.432-2.885V32.988z"/>
	<path clip-path="url(#SVGID_2_)" fill="#404040" d="M136.754,32.988c0-2.4-0.046-2.747-1.408-2.908l-0.369-0.047
		c-0.139-0.092-0.093-0.508,0.046-0.577c0.993,0.047,1.777,0.069,2.725,0.069h4.34c1.478,0,2.84,0,3.116-0.069
		c0.139,0.392,0.277,2.054,0.37,3.07c-0.093,0.139-0.462,0.186-0.577,0.047c-0.346-1.085-0.556-1.894-1.755-2.193
		c-0.484-0.116-1.224-0.139-2.239-0.139h-1.662c-0.692,0-0.692,0.046-0.692,0.924v4.617c0,0.646,0.068,0.646,0.762,0.646h1.339
		c0.97,0,1.686-0.046,1.962-0.138c0.277-0.093,0.438-0.232,0.555-0.809l0.185-0.946c0.115-0.139,0.508-0.139,0.6,0.023
		c0,0.554-0.092,1.454-0.092,2.332c0,0.831,0.092,1.708,0.092,2.216c-0.092,0.162-0.484,0.162-0.6,0.024l-0.208-0.901
		c-0.093-0.416-0.254-0.762-0.716-0.878c-0.323-0.092-0.877-0.115-1.777-0.115h-1.339c-0.693,0-0.762,0.023-0.762,0.623v3.256
		c0,1.224,0.068,2.009,0.438,2.4c0.276,0.277,0.762,0.531,2.793,0.531c1.778,0,2.447-0.092,2.955-0.346
		c0.416-0.231,1.039-1.039,1.64-2.24c0.161-0.116,0.484-0.046,0.577,0.162c-0.162,0.808-0.739,2.586-1.039,3.209
		c-2.078-0.046-4.133-0.069-6.188-0.069h-2.077c-0.993,0-1.778,0.023-3.141,0.069c-0.138-0.069-0.185-0.438-0.046-0.577l0.762-0.069
		c1.316-0.115,1.432-0.462,1.432-2.885V32.988z"/>
	<path clip-path="url(#SVGID_2_)" fill="#404040" d="M162.083,40.838c0,0.692,0,3.44,0.069,4.04
		c-0.047,0.139-0.186,0.254-0.439,0.254c-0.276-0.393-0.946-1.2-2.955-3.485l-5.355-6.096c-0.624-0.715-2.193-2.609-2.679-3.116
		h-0.046c-0.092,0.277-0.116,0.807-0.116,1.501v5.032c0,1.085,0.024,4.087,0.417,4.779c0.138,0.254,0.6,0.393,1.177,0.438
		l0.716,0.069c0.139,0.186,0.115,0.462-0.046,0.577c-1.039-0.046-1.847-0.069-2.701-0.069c-0.97,0-1.593,0.023-2.401,0.069
		c-0.161-0.115-0.185-0.438-0.046-0.577l0.623-0.069c0.531-0.069,0.9-0.208,1.016-0.462c0.323-0.831,0.301-3.647,0.301-4.756v-6.672
		c0-0.646-0.023-1.131-0.508-1.662c-0.323-0.323-0.878-0.485-1.432-0.554l-0.393-0.047c-0.14-0.138-0.14-0.484,0.046-0.577
		c0.97,0.069,2.193,0.069,2.609,0.069c0.369,0,0.762-0.022,1.062-0.069c0.462,1.178,3.186,4.225,3.948,5.079l2.238,2.517
		c1.594,1.777,2.725,3.07,3.811,4.179h0.046c0.092-0.116,0.092-0.485,0.092-0.97V35.32c0-1.085-0.022-4.086-0.461-4.779
		c-0.139-0.207-0.509-0.346-1.432-0.461l-0.393-0.047c-0.163-0.138-0.139-0.508,0.045-0.577c1.063,0.047,1.849,0.069,2.726,0.069
		c0.992,0,1.593-0.022,2.378-0.069c0.185,0.115,0.185,0.439,0.046,0.577l-0.323,0.047c-0.738,0.115-1.201,0.3-1.293,0.485
		c-0.393,0.831-0.346,3.694-0.346,4.755V40.838z"/>
	<path clip-path="url(#SVGID_2_)" fill="#404040" d="M35.955,52.511c0-0.83-0.016-0.949-0.486-1.005l-0.128-0.017
		c-0.048-0.031-0.032-0.175,0.015-0.199c0.343,0.016,0.615,0.024,0.943,0.024h1.5c0.51,0,0.981,0,1.077-0.024
		c0.048,0.136,0.096,0.71,0.128,1.062c-0.032,0.048-0.16,0.063-0.199,0.016c-0.121-0.375-0.193-0.654-0.608-0.758
		c-0.168-0.04-0.423-0.048-0.773-0.048h-0.575c-0.24,0-0.24,0.016-0.24,0.319v1.596c0,0.224,0.024,0.224,0.264,0.224h0.463
		c0.335,0,0.582-0.016,0.678-0.048c0.095-0.032,0.152-0.08,0.191-0.279l0.064-0.327c0.04-0.048,0.176-0.048,0.207,0.008
		c0,0.191-0.031,0.503-0.031,0.806c0,0.288,0.031,0.591,0.031,0.767c-0.031,0.056-0.167,0.056-0.207,0.008l-0.072-0.312
		c-0.031-0.144-0.088-0.263-0.247-0.303c-0.112-0.032-0.304-0.04-0.614-0.04h-0.463c-0.24,0-0.264,0.008-0.264,0.216v1.125
		c0,0.423,0.024,0.694,0.153,0.83c0.095,0.096,0.262,0.184,0.964,0.184c0.616,0,0.846-0.032,1.022-0.12
		c0.144-0.08,0.359-0.359,0.566-0.774c0.057-0.039,0.168-0.016,0.2,0.057c-0.055,0.279-0.255,0.894-0.359,1.109
		c-0.718-0.017-1.429-0.024-2.138-0.024h-0.718c-0.344,0-0.615,0.008-1.086,0.024c-0.048-0.024-0.065-0.152-0.016-0.2l0.264-0.023
		c0.454-0.04,0.494-0.16,0.494-0.998V52.511z"/>
	<path clip-path="url(#SVGID_2_)" fill="#404040" d="M48.495,55.225c0,0.239,0,1.188,0.024,1.396
		c-0.016,0.048-0.064,0.088-0.152,0.088c-0.096-0.136-0.327-0.415-1.021-1.205l-1.852-2.107c-0.215-0.247-0.758-0.9-0.926-1.077
		h-0.015c-0.032,0.096-0.04,0.279-0.04,0.519v1.741c0,0.375,0.008,1.411,0.143,1.65c0.049,0.088,0.208,0.136,0.407,0.152
		l0.247,0.023c0.049,0.064,0.04,0.16-0.015,0.2c-0.36-0.017-0.639-0.024-0.934-0.024c-0.336,0-0.551,0.008-0.83,0.024
		c-0.056-0.04-0.064-0.151-0.015-0.2l0.214-0.023c0.184-0.024,0.312-0.072,0.352-0.16c0.111-0.287,0.103-1.261,0.103-1.643v-2.308
		c0-0.224-0.007-0.391-0.175-0.574c-0.112-0.112-0.303-0.168-0.494-0.191l-0.136-0.017c-0.048-0.048-0.048-0.167,0.015-0.199
		c0.335,0.024,0.759,0.024,0.902,0.024c0.129,0,0.263-0.009,0.367-0.024c0.16,0.407,1.102,1.46,1.365,1.756l0.774,0.87
		c0.55,0.614,0.942,1.061,1.317,1.444h0.016c0.032-0.04,0.032-0.168,0.032-0.336v-1.707c0-0.375-0.008-1.413-0.16-1.652
		c-0.047-0.071-0.176-0.119-0.494-0.159l-0.136-0.017c-0.056-0.048-0.048-0.175,0.015-0.199c0.368,0.016,0.639,0.024,0.943,0.024
		c0.343,0,0.551-0.009,0.821-0.024c0.064,0.04,0.064,0.151,0.017,0.199l-0.113,0.017c-0.254,0.04-0.415,0.104-0.446,0.167
		c-0.137,0.287-0.12,1.277-0.12,1.645V55.225z"/>
	<path clip-path="url(#SVGID_2_)" fill="#404040" d="M54.035,52.511c0-0.83-0.016-0.949-0.486-1.005l-0.128-0.017
		c-0.048-0.031-0.032-0.175,0.015-0.199c0.343,0.016,0.615,0.024,0.943,0.024h1.5c0.51,0,0.981,0,1.077-0.024
		c0.048,0.136,0.096,0.71,0.128,1.062c-0.032,0.048-0.16,0.063-0.199,0.016c-0.121-0.375-0.193-0.654-0.608-0.758
		c-0.168-0.04-0.423-0.048-0.773-0.048h-0.575c-0.24,0-0.24,0.016-0.24,0.319v1.596c0,0.224,0.024,0.224,0.264,0.224h0.463
		c0.335,0,0.582-0.016,0.678-0.048c0.095-0.032,0.152-0.08,0.191-0.279l0.064-0.327c0.04-0.048,0.176-0.048,0.207,0.008
		c0,0.191-0.031,0.503-0.031,0.806c0,0.288,0.031,0.591,0.031,0.767c-0.031,0.056-0.167,0.056-0.207,0.008l-0.072-0.312
		c-0.031-0.144-0.088-0.263-0.247-0.303c-0.112-0.032-0.304-0.04-0.614-0.04h-0.463c-0.24,0-0.264,0.008-0.264,0.216v1.125
		c0,0.423,0.024,0.694,0.153,0.83c0.095,0.096,0.262,0.184,0.964,0.184c0.616,0,0.846-0.032,1.022-0.12
		c0.144-0.08,0.359-0.359,0.566-0.774c0.057-0.039,0.168-0.016,0.2,0.057c-0.055,0.279-0.255,0.894-0.359,1.109
		c-0.718-0.017-1.429-0.024-2.138-0.024h-0.718c-0.344,0-0.615,0.008-1.086,0.024c-0.048-0.024-0.065-0.152-0.016-0.2l0.264-0.023
		c0.454-0.04,0.494-0.16,0.494-0.998V52.511z"/>
	<path clip-path="url(#SVGID_2_)" fill="#404040" d="M62.282,52.52c0-0.759-0.024-0.895-0.351-0.935l-0.255-0.031
		c-0.056-0.04-0.056-0.168,0.008-0.2c0.446-0.039,0.997-0.063,1.779-0.063c0.495,0,0.966,0.04,1.333,0.239
		c0.383,0.199,0.662,0.559,0.662,1.117c0,0.759-0.598,1.174-0.998,1.333c-0.039,0.048,0,0.128,0.04,0.191
		c0.639,1.029,1.062,1.668,1.605,2.123c0.136,0.119,0.335,0.207,0.551,0.224c0.04,0.016,0.048,0.079,0.008,0.111
		c-0.073,0.024-0.2,0.04-0.352,0.04c-0.678,0-1.085-0.199-1.651-1.006c-0.208-0.295-0.536-0.846-0.783-1.205
		c-0.12-0.175-0.247-0.255-0.567-0.255c-0.358,0-0.375,0.008-0.375,0.176v1.005c0,0.838,0.017,0.934,0.479,0.998l0.167,0.023
		c0.049,0.04,0.033,0.176-0.015,0.2c-0.36-0.017-0.631-0.024-0.949-0.024c-0.336,0-0.623,0.008-0.998,0.024
		c-0.048-0.024-0.064-0.145-0.016-0.2l0.199-0.023c0.463-0.056,0.479-0.16,0.479-0.998V52.52z M62.936,53.66
		c0,0.144,0,0.231,0.024,0.264c0.025,0.023,0.144,0.04,0.551,0.04c0.287,0,0.591-0.033,0.822-0.208
		c0.215-0.167,0.399-0.446,0.399-0.989c0-0.631-0.391-1.229-1.276-1.229c-0.496,0-0.52,0.032-0.52,0.256V53.66z"/>
	<path clip-path="url(#SVGID_2_)" fill="#404040" d="M74.877,55.767c0,0.319,0.048,0.511,0.191,0.567
		c0.025,0.023,0.025,0.071-0.007,0.096c-0.096,0-0.24,0.031-0.391,0.071c-0.423,0.112-0.998,0.208-1.429,0.208
		c-0.949,0-1.819-0.264-2.433-0.886c-0.48-0.479-0.735-1.109-0.735-1.812c0-0.679,0.224-1.365,0.718-1.891
		c0.535-0.56,1.325-0.935,2.53-0.935c0.455,0,0.878,0.088,1.014,0.119c0.151,0.032,0.398,0.088,0.494,0.072
		c0,0.264,0.048,0.679,0.12,1.157c-0.024,0.063-0.168,0.071-0.216,0.023c-0.223-0.861-0.821-1.133-1.635-1.133
		c-1.548,0-2.227,1.102-2.227,2.298c0,1.532,0.79,2.737,2.395,2.737c0.494,0,0.79-0.104,0.878-0.239
		c0.039-0.056,0.079-0.199,0.079-0.455v-0.318c0-0.671-0.024-0.719-0.519-0.774l-0.35-0.04c-0.065-0.032-0.057-0.176,0-0.199
		c0.231,0.016,0.669,0.023,1.14,0.023c0.312,0,0.583-0.008,0.846-0.023c0.057,0.031,0.064,0.151,0.009,0.199l-0.128,0.016
		c-0.335,0.04-0.344,0.264-0.344,0.671V55.767z"/>
	<path clip-path="url(#SVGID_2_)" fill="#404040" d="M81.934,55.368c0,0.854,0.048,0.981,0.479,1.014l0.304,0.023
		c0.048,0.048,0.031,0.176-0.017,0.2c-0.494-0.017-0.766-0.024-1.084-0.024c-0.335,0-0.623,0.008-1.046,0.024
		c-0.048-0.024-0.064-0.152-0.016-0.2l0.247-0.023c0.463-0.048,0.48-0.16,0.48-1.014v-0.407c0-0.438-0.025-0.543-0.256-0.989
		l-0.942-1.836c-0.271-0.526-0.391-0.566-0.63-0.606l-0.224-0.04c-0.048-0.056-0.039-0.167,0.017-0.199
		c0.254,0.016,0.543,0.024,0.925,0.024c0.368,0,0.655-0.009,0.854-0.024c0.072,0.024,0.072,0.151,0.024,0.199l-0.104,0.017
		c-0.28,0.04-0.335,0.079-0.335,0.144c0,0.079,0.208,0.534,0.248,0.614c0.295,0.591,0.59,1.221,0.901,1.771
		c0.247-0.423,0.511-0.886,0.75-1.349c0.224-0.415,0.519-0.958,0.519-1.054c0-0.048-0.144-0.104-0.335-0.127l-0.144-0.017
		c-0.056-0.056-0.048-0.167,0.016-0.199c0.288,0.016,0.519,0.024,0.767,0.024c0.247,0,0.471-0.009,0.742-0.024
		c0.063,0.04,0.071,0.151,0.016,0.199l-0.224,0.04c-0.415,0.072-0.654,0.575-1.053,1.261l-0.503,0.87
		c-0.352,0.606-0.375,0.679-0.375,1.293V55.368z"/>
	<path clip-path="url(#SVGID_2_)" fill="#404040" d="M94.023,52.511c0-0.838-0.016-0.965-0.52-1.005l-0.198-0.017
		c-0.048-0.031-0.032-0.175,0.016-0.199c0.446,0.016,0.718,0.024,1.037,0.024c0.311,0,0.583-0.009,0.981-0.024
		c0.048,0.024,0.064,0.168,0.017,0.199l-0.191,0.017c-0.472,0.04-0.487,0.167-0.487,1.005v2.777c0,0.503,0.024,0.71,0.168,0.862
		c0.088,0.088,0.239,0.184,0.869,0.184c0.679,0,0.847-0.032,0.974-0.104c0.16-0.096,0.367-0.383,0.527-0.79
		c0.048-0.039,0.199-0.008,0.199,0.048c0,0.088-0.224,0.902-0.335,1.118c-0.407-0.017-1.165-0.024-1.987-0.024h-0.734
		c-0.335,0-0.591,0.008-1.037,0.024c-0.048-0.024-0.063-0.152-0.016-0.2l0.238-0.023c0.464-0.048,0.479-0.16,0.479-0.998V52.511z"/>
	<path clip-path="url(#SVGID_2_)" fill="#404040" d="M102.022,52.511c0-0.83-0.016-0.949-0.486-1.005l-0.128-0.017
		c-0.048-0.031-0.031-0.175,0.016-0.199c0.344,0.016,0.614,0.024,0.941,0.024h1.501c0.511,0,0.981,0,1.077-0.024
		c0.048,0.136,0.096,0.71,0.128,1.062c-0.032,0.048-0.16,0.063-0.2,0.016c-0.119-0.375-0.191-0.654-0.606-0.758
		c-0.167-0.04-0.423-0.048-0.773-0.048h-0.575c-0.239,0-0.239,0.016-0.239,0.319v1.596c0,0.224,0.024,0.224,0.264,0.224h0.463
		c0.335,0,0.582-0.016,0.678-0.048s0.152-0.08,0.191-0.279l0.064-0.327c0.04-0.048,0.176-0.048,0.207,0.008
		c0,0.191-0.031,0.503-0.031,0.806c0,0.288,0.031,0.591,0.031,0.767c-0.031,0.056-0.167,0.056-0.207,0.008l-0.072-0.312
		c-0.031-0.144-0.088-0.263-0.247-0.303c-0.111-0.032-0.304-0.04-0.614-0.04h-0.463c-0.239,0-0.264,0.008-0.264,0.216v1.125
		c0,0.423,0.024,0.694,0.151,0.83c0.096,0.096,0.264,0.184,0.966,0.184c0.614,0,0.846-0.032,1.021-0.12
		c0.145-0.08,0.359-0.359,0.566-0.774c0.057-0.039,0.168-0.016,0.2,0.057c-0.057,0.279-0.256,0.894-0.359,1.109
		c-0.719-0.017-1.429-0.024-2.138-0.024h-0.72c-0.343,0-0.613,0.008-1.085,0.024c-0.048-0.024-0.063-0.152-0.016-0.2l0.263-0.023
		c0.455-0.04,0.495-0.16,0.495-0.998V52.511z"/>
	<path clip-path="url(#SVGID_2_)" fill="#404040" d="M112.496,54.729c-0.056-0.176-0.088-0.199-0.327-0.199h-1.205
		c-0.199,0-0.247,0.023-0.304,0.191l-0.279,0.838c-0.119,0.359-0.175,0.574-0.175,0.662c0,0.096,0.039,0.144,0.23,0.16l0.264,0.023
		c0.056,0.04,0.056,0.168-0.016,0.2c-0.208-0.017-0.456-0.017-0.831-0.024c-0.263,0-0.55,0.016-0.765,0.024
		c-0.048-0.032-0.064-0.16-0.017-0.2l0.264-0.023c0.191-0.017,0.367-0.104,0.479-0.392c0.144-0.366,0.367-0.886,0.702-1.779
		l0.814-2.154c0.111-0.288,0.159-0.439,0.136-0.567c0.191-0.056,0.327-0.198,0.415-0.303c0.048,0,0.104,0.016,0.119,0.071
		c0.104,0.352,0.231,0.719,0.352,1.069l1.093,3.208c0.231,0.687,0.336,0.807,0.679,0.847l0.216,0.023c0.055,0.04,0.04,0.168,0,0.2
		c-0.327-0.017-0.606-0.024-0.966-0.024c-0.383,0-0.688,0.016-0.918,0.024c-0.063-0.032-0.071-0.16-0.016-0.2l0.231-0.023
		c0.167-0.017,0.279-0.064,0.279-0.144c0-0.088-0.04-0.231-0.104-0.424L112.496,54.729z M110.916,54.02
		c-0.063,0.184-0.056,0.191,0.168,0.191h0.981c0.231,0,0.246-0.032,0.175-0.247l-0.431-1.301c-0.063-0.192-0.136-0.407-0.184-0.503
		h-0.016c-0.024,0.04-0.104,0.231-0.191,0.471L110.916,54.02z"/>
	<path clip-path="url(#SVGID_2_)" fill="#404040" d="M119.592,56.709c-0.67,0-1.093-0.208-1.244-0.296
		c-0.096-0.175-0.2-0.742-0.216-1.117c0.04-0.056,0.159-0.071,0.191-0.024c0.12,0.408,0.447,1.189,1.372,1.189
		c0.671,0,0.998-0.439,0.998-0.917c0-0.352-0.071-0.742-0.654-1.117l-0.758-0.495c-0.399-0.264-0.862-0.719-0.862-1.373
		c0-0.758,0.591-1.372,1.628-1.372c0.248,0,0.535,0.048,0.742,0.104c0.104,0.032,0.216,0.048,0.279,0.048
		c0.072,0.191,0.144,0.639,0.144,0.974c-0.031,0.048-0.159,0.072-0.199,0.024c-0.104-0.384-0.319-0.902-1.085-0.902
		c-0.782,0-0.95,0.519-0.95,0.886c0,0.463,0.384,0.798,0.679,0.981l0.639,0.399c0.502,0.312,0.997,0.774,0.997,1.532
		C121.292,56.11,120.63,56.709,119.592,56.709"/>
	<path clip-path="url(#SVGID_2_)" fill="#404040" d="M126.315,52.511c0-0.83-0.016-0.949-0.486-1.005l-0.128-0.017
		c-0.048-0.031-0.032-0.175,0.016-0.199c0.344,0.016,0.614,0.024,0.941,0.024h1.501c0.51,0,0.981,0,1.077-0.024
		c0.048,0.136,0.096,0.71,0.128,1.062c-0.032,0.048-0.16,0.063-0.2,0.016c-0.12-0.375-0.191-0.654-0.606-0.758
		c-0.167-0.04-0.423-0.048-0.773-0.048h-0.575c-0.239,0-0.239,0.016-0.239,0.319v1.596c0,0.224,0.024,0.224,0.264,0.224h0.463
		c0.335,0,0.582-0.016,0.678-0.048s0.152-0.08,0.191-0.279l0.063-0.327c0.04-0.048,0.177-0.048,0.207,0.008
		c0,0.191-0.03,0.503-0.03,0.806c0,0.288,0.03,0.591,0.03,0.767c-0.03,0.056-0.167,0.056-0.207,0.008l-0.071-0.312
		c-0.031-0.144-0.088-0.263-0.247-0.303c-0.111-0.032-0.304-0.04-0.614-0.04h-0.463c-0.239,0-0.264,0.008-0.264,0.216v1.125
		c0,0.423,0.024,0.694,0.151,0.83c0.096,0.096,0.264,0.184,0.965,0.184c0.615,0,0.847-0.032,1.022-0.12
		c0.144-0.08,0.359-0.359,0.566-0.774c0.057-0.039,0.168-0.016,0.2,0.057c-0.057,0.279-0.256,0.894-0.359,1.109
		c-0.719-0.017-1.43-0.024-2.139-0.024h-0.719c-0.343,0-0.614,0.008-1.085,0.024c-0.048-0.024-0.063-0.152-0.016-0.2l0.263-0.023
		c0.455-0.04,0.495-0.16,0.495-0.998V52.511z"/>
	<path clip-path="url(#SVGID_2_)" fill="#FC5B1F" d="M49.903,21.352C55.896,9.796,67.963,1.879,81.853,1.879
		c13.889,0,25.956,7.917,31.948,19.472h2.112C109.771,8.725,96.812,0,81.853,0c-14.96,0-27.919,8.725-34.061,21.352H49.903z"/>
	<path clip-path="url(#SVGID_2_)" fill="#26D5BA" d="M111.182,64.477c-6.524,9.179-17.235,15.184-29.329,15.184
		c-12.095,0-22.806-6.005-29.329-15.184h-2.281c6.776,10.27,18.412,17.062,31.61,17.062c13.197,0,24.833-6.793,31.61-17.062H111.182
		z"/>
	<rect x="39.186" y="62.99" clip-path="url(#SVGID_2_)" fill="#404040" width="85.333" height="1.736"/>
	<rect x="23.14" y="20.838" clip-path="url(#SVGID_2_)" fill="#404040" width="51.57" height="1.761"/>
	<rect x="88.995" y="20.838" clip-path="url(#SVGID_2_)" fill="#404040" width="51.569" height="1.761"/>
	<path clip-path="url(#SVGID_2_)" fill="#404040" d="M80.8,20.599c0,0-0.239-0.198-0.396-0.667
		c-0.024-0.074-3.557-2.006-3.421-4.328c0,0,0.063-0.986,1.075-1.614c0.358-0.223,0.255-0.935,0.296-1.058
		c0,0-0.255,0.032-0.411,0.535c0,0,0.007,0.247-0.124,0.387c-0.116,0.122-0.269,0.078-0.255-0.181
		c0.016-0.326,0.539-0.589,0.489-0.836c-0.049-0.247-0.749,0.436-0.749,0.436s0.283-0.588,0.601-0.749
		c0.284-0.144,0.232-0.24,0.346-0.296c0.042-0.021,0.084-0.021,0.197-0.05c0.256-0.065,0.314-0.691,1.17-0.444
		c0.719,0.207,0.807,1.366-0.148,1.893c-0.391,0.216-0.243,1.087-0.082,1.186c0.16,0.099,1.029-1.219,2.635-0.935
		c1.606,0.284,1.384,0.47,1.445,0.409c0.605-0.606,1.89-2.074,3.644-0.626c0.939,0.774,0.939,2.664-0.802,3.713l0.197,0.124
		c0,0-0.301,1.975-1.05,1.569c-0.593-0.322-1.1-0.902-1.248-0.939c0,0-0.148,0.075-0.136,0.123c0.013,0.05,0.913,0.717,0.927,0.816
		c0.012,0.098-0.26,0.012-0.297,0.012s0.309,0.186,0.234,0.222c-0.073,0.037-0.567-0.086-0.617-0.136
		c-0.05-0.048,0.84,0.68,0.766,0.742s-0.667-0.173-0.741-0.272c-0.074-0.098,0.457,0.556,0.347,0.617
		c-0.111,0.063-0.951-0.494-1.038-0.567c-0.087-0.074,0.247,0.469-0.087,0.691c-0.333,0.223-0.395,0.086-0.457,0.123
		c-0.062,0.038,0.198,1.088,0.235,1.1c0.037,0.013,0.309,0.013,0.321,0.099c0.012,0.087-0.111,0.074-0.21,0.074
		c-0.1,0-0.058,0.754-0.058,0.841c0,0.086,0.407,0.119,0.469,0.23c0.031,0.055,0.017,0.156-0.065,0.272
		c-0.053,0.073,0.017-0.192-0.009-0.198c-0.049-0.012-0.35-0.066-0.387-0.016c-0.037,0.049-0.325,0.273-0.468,0.533
		c-0.029,0.054-0.009-0.233,0.167-0.488c0.074-0.108-0.5,0.049-0.76,0.352c-0.039,0.046-0.013-0.178,0.217-0.328
		c0.14-0.091,0.316-0.11,0.547-0.184c0.291-0.095-0.32-1.953-0.432-2.138c-0.111-0.186-1.051-0.136-1.137-0.074
		c-0.087,0.062-0.222,0.198-0.222,0.235s-0.173,0.704-0.173,0.803c0,0.098,0.198,0.074,0.222,0.21
		c0.025,0.135-0.247,0.135-0.297,0.135c-0.048,0-0.011,0.445-0.011,0.445s0.024,0.26,0.024,0.309c0,0.049,0.115,0.14,0.156,0.239
		c0.037,0.087-0.143-0.066-0.143-0.066s0.093,0.268,0.045,0.354c-0.041,0.074-0.03-0.288-0.173-0.272
		c-0.062,0.007-0.585,0.173-0.659,0.47c-0.017,0.065-0.069-0.259,0.256-0.453c0.123-0.074-0.537-0.017-0.767,0.263
		c-0.033,0.041-0.031-0.212,0.215-0.304c0.194-0.073,0.613-0.108,0.699-0.231C81.075,22.191,80.8,20.599,80.8,20.599"/>
</g>
</svg>
